PathFileType	4	(X/Y/Z)	/Users/itak/Documents/Research/Walk-IL/dataset/trc/00085_00006.trc
DataRate	CameraRate	NumFrames	NumMarkers	Units	OrigDataRate	OrigDataStartFrame	OrigNumFrames
100.000000	100.000000	4	53	mm	100.000000	0	524
Frame#	Time	RPSI			LPSI			L3			STRN			T10			C7			CLAV			RBAK			LBAK			LSHO			LUPA			LAEL			LAOL			LWTS			LWPS			LFRA			LIFD			LHPS			LHTS			RSHO			RUPA			RAEL			RAOL			RWTS			RWPS			RFRA			RIFD			RHTS			RHPS			RBHD			LFHD			RFHD			LBHD			LHIP			RHIP			RASI			LASI			LKNE			LTHI			LANK			LTIP			LTOE			LMT1			LMT5			LHEE			RKNE			RTHI			RANK			RTIP			RTOE			RMT1			RMT5			RHEE			
		X1	Y1	Z1	X2	Y2	Z2	X3	Y3	Z3	X4	Y4	Z4	X5	Y5	Z5	X6	Y6	Z6	X7	Y7	Z7	X8	Y8	Z8	X9	Y9	Z9	X10	Y10	Z10	X11	Y11	Z11	X12	Y12	Z12	X13	Y13	Z13	X14	Y14	Z14	X15	Y15	Z15	X16	Y16	Z16	X17	Y17	Z17	X18	Y18	Z18	X19	Y19	Z19	X20	Y20	Z20	X21	Y21	Z21	X22	Y22	Z22	X23	Y23	Z23	X24	Y24	Z24	X25	Y25	Z25	X26	Y26	Z26	X27	Y27	Z27	X28	Y28	Z28	X29	Y29	Z29	X30	Y30	Z30	X31	Y31	Z31	X32	Y32	Z32	X33	Y33	Z33	X34	Y34	Z34	X35	Y35	Z35	X36	Y36	Z36	X37	Y37	Z37	X38	Y38	Z38	X39	Y39	Z39	X40	Y40	Z40	X41	Y41	Z41	X42	Y42	Z42	X43	Y43	Z43	X44	Y44	Z44	X45	Y45	Z45	X46	Y46	Z46	X47	Y47	Z47	X48	Y48	Z48	X49	Y49	Z49	X50	Y50	Z50	X51	Y51	Z51	X52	Y52	Z52	X53	Y53	Z53	

1	0	-1357.478149414062	1037.8681640625	475.8930053710938	-1371.417236328125	1030.69482421875	300.4979858398438	-1360.788940429688	1084.955444335938	379.4886169433594	-1118.216796875	1289.590087890625	377.5408935546875	-1383.370849609375	1218.16015625	371.5752258300781	-1331.995361328125	1487.086669921875	366.45556640625	-1149.732299804688	1403.98193359375	374.4057312011719	-1391.663330078125	1347.3447265625	441.6357116699219	-1349.950439453125	1447.914794921875	263.9681396484375	-1243.492431640625	1452.992553710938	194.8101654052734	-1249.836181640625	1322.502075195312	120.9104614257812	-1216.814819335938	1105.719482421875	117.2866439819336	-1289.390991210938	1093.660766601562	194.0373077392578	-1116.205200195312	881.0848388671875	215.0736236572266	-1166.615844726562	859.0001831054688	150.0474395751953	-1187.830444335938	997.9113159179688	122.672004699707	-1095.9990234375	701.629638671875	257.5112915039062	-1129.5537109375	782.6395874023438	167.7187194824219	-1092.17138671875	797.1926879882812	223.6206359863281	-1271.68603515625	1453.551879882812	544.072265625	-1283.26416015625	1384.975463867188	607.3865966796875	-1304.886352539062	1119.657104492188	639.3018798828125	-1282.202514648438	1096.541625976562	544.7894287109375	-1152.773193359375	871.23681640625	618.1249389648438	-1226.489868164062	855.8920288085938	664.5767822265625	-1290.035278320312	1041.088012695312	648.7271728515625	-1144.955932617188	684.1234130859375	605.377685546875	-1126.245239257812	771.5125732421875	622.7451782226562	-1185.21923828125	769.4824829101562	672.4662475585938	-1293.131103515625	1675.236572265625	311.0477905273438	-1117.584228515625	1697.003295898438	434.6575317382812	-1116.901611328125	1701.795043945312	308.8954467773438	-1285.617919921875	1662.857788085938	448.2635498046875	-1270.719360351562	964.3172607421875	209.28759765625	-1287.749145507812	964.7464599609375	549.748779296875	-1163.336303710938	981.3482666015625	524.4016723632812	-1156.18505859375	973.277587890625	255.6068878173828	-1207.5322265625	501.9284057617188	270.7718811035156	-1237.273681640625	641.9801635742188	230.7040557861328	-1334.975952148438	53.05220794677734	272.4465637207031	-1279.193237304688	265.1151428222656	258.3791198730469	-1128.470092773438	45.88217544555664	273.5773010253906	-1177.571899414062	44.51612854003906	328.103515625	-1233.64013671875	46.05524063110352	231.5504302978516	-1385.504638671875	46.77197265625	351.0534057617188	-1214.11279296875	519.1697387695312	523.7432861328125	-1206.176513671875	790.1137084960938	555.367919921875	-1330.666015625	45.61641311645508	515.6580810546875	-1240.586059570312	397.5086364746094	527.8071899414062	-1111.179321289062	44.03119659423828	482.6785583496094	-1172.419555664062	49.46456909179688	442.3224182128906	-1205.742919921875	48.70641326904297	534.4417114257812	-1374.747192382812	48.34084320068359	457.1712646484375	
2	0.01	-1357.428588867188	1037.918212890625	475.8609313964844	-1371.388671875	1030.70751953125	300.4672241210938	-1360.704467773438	1084.993896484375	379.4863891601562	-1118.014404296875	1289.508178710938	377.5793762207031	-1383.282470703125	1218.23046875	371.5378723144531	-1331.756958007812	1487.126220703125	366.5244140625	-1149.459716796875	1403.934448242188	374.44580078125	-1391.5869140625	1347.382690429688	441.6383666992188	-1349.798706054688	1447.962036132812	263.9719848632812	-1243.315551757812	1453.026733398438	194.8391876220703	-1249.712890625	1322.547729492188	120.9266052246094	-1216.87060546875	1105.72607421875	117.3218154907227	-1289.524291992188	1093.763549804688	194.0284118652344	-1116.8505859375	880.9500732421875	215.0275268554688	-1167.11572265625	858.9462280273438	149.9965209960938	-1188.050415039062	997.8815307617188	122.6870346069336	-1096.77880859375	701.4310302734375	257.4908142089844	-1130.0517578125	782.5193481445312	167.6555786132812	-1091.72021484375	798.0750732421875	223.3733367919922	-1271.456665039062	1453.535766601562	544.0787963867188	-1283.0439453125	1384.898559570312	607.4080200195312	-1304.7841796875	1119.581665039062	639.3458251953125	-1282.067016601562	1096.516357421875	544.8509521484375	-1152.559326171875	871.2218017578125	618.0712890625	-1226.300170898438	855.8711547851562	664.56640625	-1289.928466796875	1041.060546875	648.7608032226562	-1144.619873046875	684.1729125976562	605.219970703125	-1126.018310546875	771.5673217773438	622.7265625	-1185.042724609375	769.449462890625	672.4243774414062	-1292.88232421875	1675.295532226562	311.0796203613281	-1117.31298828125	1696.982543945312	434.7227478027344	-1116.721801757812	1701.788330078125	308.9731750488281	-1285.406494140625	1662.858154296875	448.4107971191406	-1270.682006835938	964.3075561523438	209.275146484375	-1287.732421875	964.75537109375	549.7249145507812	-1163.317016601562	981.3497924804688	524.3963012695312	-1156.26220703125	973.0765380859375	255.6267700195312	-1207.389892578125	501.9258728027344	270.7626647949219	-1237.088256835938	641.9479370117188	230.7350616455078	-1334.963256835938	53.06224822998047	272.4541015625	-1279.10302734375	265.0970764160156	258.3684997558594	-1128.470458984375	45.88350677490234	273.5714721679688	-1177.555419921875	44.50277709960938	328.1123352050781	-1233.6337890625	46.05754470825195	231.5529479980469	-1385.4853515625	46.77172470092773	351.068359375	-1213.948120117188	519.1729125976562	523.7256469726562	-1206.090698242188	790.1314086914062	555.3594360351562	-1330.646240234375	45.64926528930664	515.606689453125	-1240.511352539062	397.5084228515625	527.8146362304688	-1111.142944335938	44.0251350402832	482.6585388183594	-1172.306762695312	49.55481338500977	442.382568359375	-1205.73828125	48.71108627319336	534.4305419921875	-1374.745727539062	48.36673736572266	457.1385498046875	
3	0.02	-1357.373779296875	1037.974731445312	475.8209533691406	-1371.349487304688	1030.718627929688	300.42724609375	-1360.607055664062	1085.041259765625	379.47509765625	-1117.77001953125	1289.411010742188	377.6241455078125	-1383.17626953125	1218.323120117188	371.4872741699219	-1331.4677734375	1487.173950195312	366.6019287109375	-1149.129272460938	1403.880493164062	374.4983825683594	-1391.48974609375	1347.425415039062	441.6445617675781	-1349.597900390625	1448.019409179688	263.9803161621094	-1243.07568359375	1453.0712890625	194.8837890625	-1249.557250976562	1322.606323242188	120.9384231567383	-1216.937744140625	1105.738159179688	117.3516159057617	-1289.677856445312	1093.890258789062	194.0098266601562	-1117.65966796875	880.7622680664062	214.9351806640625	-1167.742065429688	858.8715209960938	149.8962554931641	-1188.322021484375	997.8438110351562	122.6840667724609	-1097.788818359375	701.1551513671875	257.3798217773438	-1130.713500976562	782.359375	167.5297546386719	-1091.55126953125	798.7867431640625	223.0873413085938	-1271.18212890625	1453.510986328125	544.08544921875	-1282.767211914062	1384.797485351562	607.4307861328125	-1304.665283203125	1119.490600585938	639.3922729492188	-1281.907470703125	1096.485107421875	544.9220581054688	-1152.311401367188	871.2006225585938	617.996826171875	-1226.064819335938	855.8427734375	664.5318603515625	-1289.799194335938	1041.020141601562	648.7888793945312	-1144.232421875	684.2194213867188	604.9994506835938	-1125.761352539062	771.6173706054688	622.672607421875	-1184.821655273438	769.39111328125	672.3433837890625	-1292.599609375	1675.35009765625	311.1344299316406	-1116.986694335938	1696.9541015625	434.8086547851562	-1116.494750976562	1701.777587890625	309.0680847167969	-1285.132568359375	1662.8525390625	448.6040954589844	-1270.629272460938	964.292724609375	209.259765625	-1287.710205078125	964.7647705078125	549.6944580078125	-1163.290161132812	981.3517456054688	524.3873901367188	-1156.353515625	972.8360595703125	255.6412811279297	-1207.196655273438	501.9195556640625	270.7571411132812	-1236.868286132812	641.9094848632812	230.7598876953125	-1334.94677734375	53.07331848144531	272.4649047851562	-1278.982177734375	265.0709838867188	258.3594970703125	-1128.4677734375	45.88304138183594	273.5647888183594	-1177.53564453125	44.48597717285156	328.1218566894531	-1233.625732421875	46.05966567993164	231.5563812255859	-1385.464721679688	46.77688980102539	351.0841064453125	-1213.75146484375	519.1758422851562	523.705810546875	-1205.995239257812	790.1500854492188	555.3472290039062	-1330.626220703125	45.69058609008789	515.5443115234375	-1240.417114257812	397.5086669921875	527.8270874023438	-1111.097045898438	44.01679611206055	482.6351318359375	-1172.205322265625	49.62824630737305	442.4328002929688	-1205.735473632812	48.71499633789062	534.419677734375	-1374.744873046875	48.39719772338867	457.0989379882812	
4	0.03	-1357.319702148438	1038.03271484375	475.7744445800781	-1371.299560546875	1030.72509765625	300.378662109375	-1360.503784179688	1085.094360351562	379.4518127441406	-1117.4990234375	1289.305541992188	377.6720886230469	-1383.058837890625	1218.436401367188	371.4242553710938	-1331.143920898438	1487.22705078125	366.681396484375	-1148.762329101562	1403.824951171875	374.5623779296875	-1391.373657226562	1347.4697265625	441.6556396484375	-1349.35009765625	1448.084228515625	263.9957580566406	-1242.7763671875	1453.124877929688	194.9448089599609	-1249.375366210938	1322.67626953125	120.9415893554688	-1217.01220703125	1105.757446289062	117.3667373657227	-1289.839599609375	1094.034301757812	193.9779510498047	-1118.5966796875	880.5195922851562	214.7825317382812	-1168.47021484375	858.7769775390625	149.7302703857422	-1188.632080078125	997.8005981445312	122.6509857177734	-1099.00537109375	700.795166015625	257.1447143554688	-1131.529296875	782.1621704101562	167.3193664550781	-1091.795776367188	799.1820678710938	222.7615966796875	-1270.880493164062	1453.476318359375	544.0919799804688	-1282.446899414062	1384.675170898438	607.45263671875	-1304.538818359375	1119.389404296875	639.43505859375	-1281.736328125	1096.448974609375	544.9951171875	-1152.046630859375	871.1744995117188	617.9021606445312	-1225.795288085938	855.8052978515625	664.4644775390625	-1289.655151367188	1040.964965820312	648.8027954101562	-1143.832397460938	684.2504272460938	604.7181396484375	-1125.487548828125	771.6561889648438	622.5680541992188	-1184.566284179688	769.3040771484375	672.2153930664062	-1292.302001953125	1675.389526367188	311.2176513671875	-1116.625366210938	1696.917602539062	434.9132995605469	-1116.22802734375	1701.761352539062	309.1754760742188	-1284.805786132812	1662.838012695312	448.8346862792969	-1270.561157226562	964.2723388671875	209.2411193847656	-1287.683349609375	964.7730102539062	549.6591186523438	-1163.255981445312	981.353759765625	524.3750610351562	-1156.447875976562	972.5750732421875	255.6474761962891	-1206.953491210938	501.9081726074219	270.7592468261719	-1236.623657226562	641.8666381835938	230.7759246826172	-1334.926513671875	53.08439636230469	272.4794006347656	-1278.832763671875	265.0370788574219	258.3546447753906	-1128.460083007812	45.87936401367188	273.5582580566406	-1177.513793945312	44.46646118164062	328.1312561035156	-1233.61572265625	46.06135559082031	231.5609283447266	-1385.444091796875	46.78868865966797	351.0995483398438	-1213.536376953125	519.177734375	523.6856689453125	-1205.900024414062	790.166748046875	555.3310546875	-1330.607788085938	45.73858261108398	515.4752197265625	-1240.30712890625	397.5097961425781	527.8450317382812	-1111.04443359375	44.00614929199219	482.6102600097656	-1172.122924804688	49.67844390869141	442.4690246582031	-1205.735107421875	48.71741485595703	534.410400390625	-1374.74462890625	48.42975997924805	457.054931640625	
